<?xml version="1.0" encoding="utf-8"?>
<!-- Generator: Adobe Illustrator 26.0.3, SVG Export Plug-In . SVG Version: 6.00 Build 0)  -->
<svg version="1.0" id="katman_1" xmlns="http://www.w3.org/2000/svg" xmlns:xlink="http://www.w3.org/1999/xlink" x="0px" y="0px"
	 viewBox="0 0 600 450" style="enable-background:new 0 0 600 450;" xml:space="preserve">
<style type="text/css">
	.st0{fill:#060911;}
	.st1{fill-rule:evenodd;clip-rule:evenodd;fill:url(#SVGID_1_);}
</style>
<path class="st0" d="M322.7,263.7c-5.4,0-10.3-0.9-14.7-2.8c-4.4-1.9-8.2-4.5-11.4-7.7c-3.1-3.3-5.6-7.1-7.3-11.5
	c-1.7-4.4-2.6-9.2-2.6-14.2c0-5.1,0.9-9.9,2.7-14.3c1.8-4.4,4.3-8.3,7.5-11.5c3.2-3.3,7-5.8,11.4-7.6c4.4-1.9,9.2-2.8,14.5-2.8
	c3.4,0,6.6,0.4,9.7,1.3c3.1,0.8,6,2,8.7,3.6c2.7,1.5,5.1,3.3,7.3,5.5c2.2,2.1,4,4.5,5.6,7l-14.7,9.3c-1.6-3.1-3.8-5.6-6.6-7.4
	c-2.8-1.9-6.1-2.8-9.9-2.8c-2.8,0-5.4,0.5-7.7,1.5s-4.3,2.4-6,4.2c-1.7,1.7-3,3.8-4,6.3c-0.9,2.4-1.3,4.9-1.3,7.6
	c0,2.7,0.4,5.2,1.3,7.6c0.9,2.3,2.2,4.4,3.9,6.2c1.7,1.7,3.6,3.1,5.9,4.1c2.3,1,4.9,1.5,7.7,1.5c4.2,0,7.8-1.1,10.6-3.2
	c2.8-2.2,5-4.9,6.5-8.3l15.5,8.3c-1.5,2.9-3.3,5.6-5.5,8c-2.2,2.4-4.7,4.6-7.4,6.4c-2.7,1.7-5.7,3.1-9.1,4
	C329.9,263.2,326.4,263.7,322.7,263.7z"/>
<path class="st0" d="M361.7,186.8h16v29.8c1.7-2.2,3.7-3.9,6-5.1c2.4-1.2,5-1.8,7.9-1.8c2.9,0,5.5,0.5,7.8,1.4c2.3,0.9,4.3,2.2,6,4
	c1.7,1.7,3,3.9,3.9,6.5c0.9,2.5,1.3,5.4,1.3,8.6v32.7h-16.8v-29.4c0-3-0.6-5.3-1.9-6.9c-1.3-1.7-3.3-2.5-6-2.5
	c-2.4,0-4.3,0.8-5.9,2.5s-2.3,4.2-2.3,7.7v28.6h-16V186.8z"/>
<path class="st0" d="M435,263.8c-2.7,0-5.1-0.4-7.3-1.1c-2.2-0.7-4-1.7-5.6-3.1c-1.5-1.3-2.7-3-3.6-4.9c-0.8-1.9-1.3-4.1-1.3-6.6
	c0-2.7,0.5-5.1,1.6-7.3c1.1-2.2,2.7-4,4.7-5.5c2.1-1.5,4.5-2.7,7.4-3.6c2.9-0.8,6.1-1.3,9.7-1.3h11.9v-0.4c0-2.2-0.8-3.9-2.3-5.2
	c-1.5-1.3-3.7-2-6.6-2c-2.4,0-4.5,0.4-6.1,1.3c-1.6,0.9-2.9,2.2-3.8,4l-15.3-6.8c2.8-3.5,6.1-6.4,10-8.6c4-2.2,9-3.3,15-3.3
	c7.9,0,14,1.9,18.2,5.6c4.2,3.7,6.4,8.9,6.4,15.7v31.8h-15.5v-6.9c-1.7,2.4-4.1,4.4-7.2,5.9C442.5,263.1,439,263.8,435,263.8z
	 M440.5,251c1.3,0,2.7-0.2,4-0.6c1.3-0.4,2.6-1,3.7-1.7c1.2-0.8,2.2-1.6,3-2.6c0.8-1,1.4-2.1,1.8-3.2v-1.1H443
	c-3.1,0-5.3,0.5-6.6,1.4c-1.3,0.9-2,2.1-2,3.6C434.4,249.6,436.4,251,440.5,251z"/>
<path class="st0" d="M473,210.7h9v-11.3l16-8.8v20h12.7V225H498V242c0,2.6,0.4,4.4,1.2,5.3c0.8,0.9,2,1.3,3.4,1.3
	c1.5,0,3-0.6,4.2-1.8l7.3,12.2c-1.9,1.5-4,2.6-6.4,3.5c-2.3,0.8-4.8,1.2-7.5,1.2c-2.9,0-5.5-0.4-7.7-1.1c-2.3-0.7-4.2-1.9-5.8-3.5
	c-1.5-1.7-2.7-3.8-3.6-6.5c-0.8-2.6-1.2-5.9-1.2-9.7v-18h-9V210.7z"/>
<linearGradient id="SVGID_1_" gradientUnits="userSpaceOnUse" x1="172.1024" y1="282.4543" x2="385.7317" y2="53.4508" gradientTransform="matrix(1 0 0 -1 -120.9449 379.3622)">
	<stop  offset="0" style="stop-color:#5F89C6"/>
	<stop  offset="1" style="stop-color:#5D519E"/>
</linearGradient>
<path class="st1" d="M86.2,225.4c0,46.8,38,84.8,84.8,84.8c0,0,0.1,0,0.1,0h82.5l-23.8-23.8c16-15.4,25.9-37.1,25.9-61
	c0-46.8-38-84.8-84.8-84.8C124.2,140.6,86.2,178.5,86.2,225.4z M195.3,251.8h7.6c1.7,0,3.4-0.7,4.7-1.9c1.2-1.2,1.9-2.9,1.9-4.7
	c0-1.7-0.7-3.4-1.9-4.7c-1.2-1.2-2.9-1.9-4.7-1.9h-64.5c-1.7,0-3.4,0.7-4.7,1.9c-1.2,1.2-1.9,2.9-1.9,4.7c0,1.7,0.7,3.4,1.9,4.7
	c1.2,1.2,2.9,1.9,4.7,1.9h55.6l0.4-1L195.3,251.8z M137.6,208.9c-1.7,0-3.4-0.7-4.7-1.9c-1.2-1.2-1.9-2.9-1.9-4.7
	c0-1.7,0.7-3.4,1.9-4.7c1.2-1.2,2.9-1.9,4.7-1.9h66.1c1.7,0,3.4,0.7,4.7,1.9c1.2,1.2,1.9,2.9,1.9,4.7c0,1.7-0.7,3.4-1.9,4.7
	c-1.2,1.2-2.9,1.9-4.7,1.9H137.6z M118.2,230.3c-1.7,0-3.4-0.7-4.7-1.9c-1.2-1.2-1.9-2.9-1.9-4.7c0-1.7,0.7-3.4,1.9-4.7
	c1.2-1.2,2.9-1.9,4.7-1.9H223c1.7,0,3.4,0.7,4.7,1.9c1.2,1.2,1.9,2.9,1.9,4.7c0,1.7-0.7,3.4-1.9,4.7c-1.2,1.2-2.9,1.9-4.7,1.9H118.2
	z"/>
</svg>
